<?xml version="1.0" encoding="UTF-8" standalone="no"?>
<!-- Created with Inkscape (http://www.inkscape.org/) -->

<svg
   width="99.966507mm"
   height="120.25416mm"
   viewBox="0 0 99.966507 120.25416"
   version="1.1"
   id="svg5"
   xmlns="http://www.w3.org/2000/svg"
   xmlns:svg="http://www.w3.org/2000/svg">
  <defs
     id="defs2" />
  <g
     id="layer1"
     transform="translate(-55.016797,-88.372899)">
    <g
       aria-label="JK"
       id="text3267"
       style="font-size:75.8811px;line-height:1.25;font-family:Winner;-inkscape-font-specification:Winner;stroke-width:1.89703">
      <path
         id="path80"
         style="font-size:68.3751px;fill:#ffffff;stroke-width:7.12895"
         d="m 68.998889,88.3729 v 12.777 h 9.770463 v 12.2623 h 13.979509 v -12.2623 h 8.418089 v -12.777 z m 39.834261,0 v 12.777 h 8.86871 l -6.92361,12.2623 -1.19579,2.11718 -7.29878,12.92738 -1.19579,2.1177 -8.339029,14.76861 V 130.57446 H 78.769352 v 35.85156 2.11718 12.92738 2.11718 12.2623 h -9.770463 v 12.777 h 32.017681 v -12.777 h -8.267709 v -12.2623 -2.11718 -12.92738 -2.11718 -0.0382 l 8.117329,-14.12989 5.27617,14.16813 h 14.63063 l -10.28619,-26.64437 5.08702,-9.20719 1.17048,-2.1177 7.14219,-12.92738 1.16996,-2.11718 6.7753,-12.2623 h 8.26719 v -12.777 z m -53.714551,27.15648 v 12.92738 h 21.53357 2.117183 13.979509 2.118217 4.986775 c 2.432997,-4.30914 4.866297,-8.61824 7.299297,-12.92738 H 94.867078 92.748861 78.769352 76.652169 Z m 71.186351,0 c -2.38168,4.30915 -4.76362,8.61823 -7.1453,12.92738 h 8.19692 v 40.08644 h -3.49695 -2.26911 -14.65957 -2.26188 -9.801982 v 12.92738 h 14.617712 2.26033 14.8363 2.27015 4.81831 l 7.6662,-7.6662 v -45.34762 h 13.64722 v -12.92738 z m -71.288153,26.85883 v 31.41617 l 7.666199,7.6662 H 76.652169 V 168.5432 H 67.34266 v -26.15499 z m 57.516903,41.19955 4.56665,12.2623 h -8.56796 v 12.777 h 32.46882 v -12.777 h -8.86871 l -4.73407,-12.2623 z" />
    </g>
  </g>
</svg>
